<?xml version="1.0" standalone="no"?>
<!DOCTYPE svg PUBLIC "-//W3C//DTD SVG 20010904//EN"
 "http://www.w3.org/TR/2001/REC-SVG-20010904/DTD/svg10.dtd">
<svg version="1.0" xmlns="http://www.w3.org/2000/svg"
 width="1080.000000pt" height="1080.000000pt" viewBox="0 0 1080.000000 1080.000000"
 preserveAspectRatio="xMidYMid meet">

<g transform="translate(0.000000,1080.000000) scale(0.100000,-0.100000)"
fill="#000000" stroke="none">
<path d="M2737 7933 c-4 -7 -390 -923 -404 -960 -4 -10 94 -13 455 -15 l461
-3 -543 -1295 c-298 -712 -545 -1303 -549 -1312 -6 -17 20 -18 451 -18 l457 0
551 1313 550 1312 463 3 c369 2 462 0 458 -10 -3 -7 -251 -598 -551 -1312
-300 -715 -545 -1301 -543 -1302 2 -1 4208 3573 4231 3596 7 7 -193 10 -626
10 l-636 0 -437 -405 c-241 -223 -440 -404 -442 -401 -2 2 69 177 158 387 89
211 164 392 166 402 5 16 -87 17 -1830 17 -1010 0 -1838 -3 -1840 -7z"/>
<path d="M5795 5653 c-198 -168 -360 -311 -360 -318 0 -6 178 -235 395 -508
l395 -496 618 -1 619 0 -34 42 c-145 185 -1268 1588 -1270 1588 -2 0 -165
-138 -363 -307z"/>
<path d="M3515 3714 c-81 -21 -137 -59 -168 -117 -20 -38 -22 -56 -22 -188 0
-145 0 -146 30 -195 73 -118 273 -150 408 -64 67 42 90 92 95 208 l4 92 -131
0 -132 0 3 -47 3 -48 48 -3 c42 -3 47 -6 47 -27 0 -13 -5 -35 -11 -48 -34 -74
-171 -66 -200 11 -6 15 -9 77 -7 139 3 101 5 114 26 136 47 49 138 41 175 -17
16 -24 23 -26 92 -26 40 0 76 4 79 8 3 5 1 25 -5 44 -11 42 -71 100 -126 123
-38 16 -171 28 -208 19z"/>
<path d="M6485 3711 c-56 -14 -115 -51 -139 -89 -38 -57 -49 -119 -44 -245 3
-96 8 -119 29 -157 36 -65 91 -100 180 -112 135 -20 242 23 291 114 21 39 23
56 23 188 0 132 -2 149 -23 188 -51 95 -189 144 -317 113z m155 -147 c24 -24
25 -29 25 -153 0 -122 -1 -131 -23 -154 -48 -51 -135 -38 -167 23 -13 26 -16
55 -13 145 3 103 5 116 27 139 40 42 107 42 151 0z"/>
<path d="M2215 3698 c-3 -7 -4 -141 -3 -298 l3 -285 73 -3 72 -3 0 106 0 105
48 0 48 0 39 -82 c62 -126 64 -128 145 -128 38 0 71 4 74 9 3 5 -21 57 -54
117 l-60 107 36 30 c101 84 83 251 -33 309 -43 21 -64 23 -215 26 -134 3 -169
1 -173 -10z m303 -124 c16 -11 22 -25 22 -54 0 -63 -34 -84 -126 -78 l-49 3
-3 73 -3 72 68 0 c46 0 76 -5 91 -16z"/>
<path d="M2805 3697 c-3 -7 -4 -140 -3 -297 l3 -285 220 0 220 0 3 58 3 57
-151 0 -150 0 0 60 0 59 133 3 132 3 3 58 3 57 -136 0 -135 0 0 60 0 60 145 0
145 0 0 60 0 60 -215 0 c-165 0 -217 -3 -220 -13z"/>
<path d="M3960 3488 c0 -195 3 -228 19 -263 37 -82 109 -119 231 -120 94 0
157 23 203 75 49 54 58 108 55 335 l-3 190 -75 0 -75 0 -5 -210 c-3 -115 -9
-217 -13 -226 -21 -43 -111 -52 -154 -15 l-28 24 -5 214 -5 213 -72 3 -73 3 0
-223z"/>
<path d="M4585 3697 c-3 -7 -4 -140 -3 -297 l3 -285 215 0 215 0 0 60 0 60
-142 3 -143 3 0 234 0 235 -70 0 c-48 0 -72 -4 -75 -13z"/>
<path d="M5241 3688 c-64 -170 -201 -553 -201 -564 0 -12 14 -14 72 -12 l72 3
16 40 c25 67 22 65 141 65 l109 0 10 -27 c25 -73 31 -78 99 -81 35 -2 68 1 72
5 7 7 -183 546 -205 581 -5 8 -35 12 -92 12 -78 0 -85 -2 -93 -22z m140 -245
c16 -48 29 -90 29 -95 0 -4 -34 -8 -76 -8 -57 0 -75 3 -72 13 3 6 20 56 39
109 38 109 36 110 80 -19z"/>
<path d="M5715 3698 c-3 -7 -4 -141 -3 -298 l3 -285 170 0 c193 0 240 13 287
76 39 53 48 93 48 224 0 114 -2 126 -27 175 -22 42 -40 59 -83 84 -55 31 -56
31 -222 35 -135 2 -169 0 -173 -11z m291 -123 c47 -19 64 -63 64 -165 0 -84
-14 -134 -44 -159 -12 -10 -42 -15 -89 -15 l-72 -1 -3 165 c-1 90 0 170 2 177
7 18 98 17 142 -2z"/>
<path d="M6935 3698 c-3 -7 -4 -141 -3 -298 l3 -285 73 -3 72 -3 0 106 0 105
48 0 48 0 39 -82 c62 -126 64 -128 145 -128 38 0 71 4 74 9 3 5 -21 57 -54
117 l-60 107 36 30 c101 84 83 251 -33 309 -43 21 -64 23 -215 26 -134 3 -169
1 -173 -10z m303 -124 c16 -11 22 -25 22 -54 0 -63 -34 -84 -126 -78 l-49 3
-3 73 -3 72 68 0 c46 0 76 -5 91 -16z"/>
<path d="M7681 3688 c-64 -170 -201 -553 -201 -564 0 -12 14 -14 72 -12 l72 3
16 40 c25 67 22 65 141 65 l109 0 10 -27 c25 -73 31 -78 99 -81 35 -2 68 1 72
5 7 7 -183 546 -205 581 -5 8 -35 12 -92 12 -78 0 -85 -2 -93 -22z m140 -245
c16 -48 29 -90 29 -95 0 -4 -34 -8 -76 -8 -57 0 -75 3 -72 13 3 6 20 56 39
109 38 109 36 110 80 -19z"/>
</g>
</svg>
